<svg data-v-423bf9ae="" xmlns="http://www.w3.org/2000/svg" viewBox="0 0 443 90" class="iconLeft"><!----><!----><!----><g data-v-423bf9ae="" id="af18b046-7c7b-403e-a925-3184c0d5f99f" fill="black" transform="matrix(6.116208284037474,0,0,6.116208284037474,107.43119845028252,-10.626914490600733)"><path d="M1.54 11.12C1.40 10.98 1.20 10.89 0.98 10.89C0.77 10.89 0.56 10.98 0.42 11.12L0.42 4.79C0.42 4.48 0.67 4.23 0.98 4.23C1.29 4.23 1.54 4.48 1.54 4.79ZM2.62 14C1.41 14 0.42 12.96 0.42 11.69C0.42 11.38 0.67 11.13 0.98 11.13C1.29 11.13 1.54 11.38 1.54 11.69C1.54 12.01 1.65 12.32 1.88 12.54C2.07 12.77 2.34 12.88 2.62 12.88C2.90 12.88 3.16 12.77 3.37 12.54C3.58 12.32 3.71 12.01 3.71 11.69C3.71 11.38 3.96 11.13 4.27 11.13C4.58 11.13 4.83 11.38 4.83 11.69C4.83 12.96 3.84 14 2.62 14ZM10.08 8.96C10.08 9.03 10.07 9.09 10.05 9.14C9.98 9.37 9.76 9.52 9.52 9.52C9.21 9.52 8.96 9.27 8.96 8.96C8.96 8.93 8.96 8.90 8.95 8.88C8.93 8.58 8.82 8.32 8.62 8.11C8.41 7.90 8.15 7.77 7.87 7.77C7.59 7.77 7.32 7.90 7.13 8.11C6.93 8.32 6.82 8.58 6.79 8.88L6.79 8.96C6.79 9.27 6.54 9.52 6.23 9.52C5.98 9.52 5.77 9.37 5.70 9.14C5.68 9.09 5.67 9.03 5.67 8.96L5.67 8.88C5.67 8.78 5.68 8.69 5.70 8.60C5.87 7.50 6.78 6.65 7.87 6.65C8.97 6.65 9.88 7.50 10.05 8.60C10.07 8.69 10.07 8.78 10.08 8.88ZM10.08 11.91C10.08 12.53 9.84 13.08 9.41 13.45C9.00 13.80 8.46 14 7.87 14C6.66 14 5.67 12.96 5.67 11.69L5.67 9.53C5.73 9.58 5.78 9.63 5.84 9.66C5.95 9.73 6.09 9.76 6.23 9.76C6.45 9.76 6.65 9.67 6.79 9.53C6.85 9.48 6.89 9.42 6.93 9.35C6.97 9.45 7.04 9.55 7.13 9.63C7.32 9.84 7.59 9.97 7.87 9.97C8.15 9.97 8.41 9.84 8.62 9.63C8.71 9.55 8.76 9.45 8.82 9.35C8.96 9.60 9.21 9.76 9.52 9.76C9.66 9.76 9.79 9.73 9.91 9.66C9.58 10.50 8.79 11.09 7.87 11.09C7.48 11.09 7.11 10.98 6.79 10.79L6.79 11.69C6.79 12.01 6.90 12.32 7.13 12.54C7.32 12.75 7.59 12.88 7.87 12.88C8.19 12.88 8.47 12.78 8.67 12.61C8.86 12.45 8.96 12.21 8.96 11.91C8.96 11.61 9.21 11.35 9.52 11.35C9.83 11.35 10.08 11.61 10.08 11.91ZM10.92 8.97C10.92 8.74 10.96 8.50 11.02 8.29C11.30 7.35 12.14 6.66 13.10 6.66L13.12 6.66C14.34 6.66 15.33 7.70 15.33 8.97C15.33 9.07 15.30 9.16 15.27 9.23C15.18 9.41 14.98 9.53 14.77 9.53C14.55 9.53 14.35 9.41 14.27 9.23C14.22 9.16 14.21 9.07 14.21 8.97C14.21 8.65 14.08 8.34 13.87 8.12C13.66 7.91 13.40 7.78 13.12 7.78C12.84 7.78 12.57 7.91 12.38 8.12C12.15 8.34 12.04 8.65 12.04 8.97C12.04 9.07 12.03 9.16 11.98 9.23C11.89 9.41 11.70 9.53 11.48 9.53C11.26 9.53 11.07 9.41 10.98 9.23C10.95 9.16 10.92 9.07 10.92 8.97ZM13.97 11.69C13.97 11.70 13.96 11.72 13.96 11.73L11.56 9.77C11.97 9.73 12.28 9.38 12.28 8.97L12.28 8.90L14.70 10.89C14.29 10.92 13.97 11.27 13.97 11.69ZM15.33 11.69C15.33 11.93 15.29 12.17 15.22 12.38C14.94 13.31 14.11 14 13.13 14L13.12 14C11.91 14 10.92 12.96 10.92 11.69C10.92 11.59 10.95 11.51 10.98 11.44C11.07 11.26 11.26 11.13 11.48 11.13C11.70 11.13 11.89 11.26 11.98 11.44C12.03 11.51 12.04 11.59 12.04 11.69C12.04 12.01 12.15 12.32 12.38 12.54C12.57 12.75 12.84 12.88 13.12 12.88C13.40 12.88 13.66 12.75 13.87 12.54C14.08 12.32 14.21 12.01 14.21 11.69C14.21 11.59 14.22 11.51 14.27 11.44C14.35 11.26 14.55 11.13 14.77 11.13C14.98 11.13 15.18 11.26 15.27 11.44C15.30 11.51 15.33 11.59 15.33 11.69ZM16.17 8.97C16.17 8.74 16.21 8.50 16.27 8.29C16.55 7.35 17.39 6.66 18.35 6.66L18.37 6.66C19.59 6.66 20.58 7.70 20.58 8.97C20.58 9.07 20.55 9.16 20.52 9.23C20.43 9.41 20.23 9.53 20.02 9.53C19.80 9.53 19.60 9.41 19.52 9.23C19.47 9.16 19.46 9.07 19.46 8.97C19.46 8.65 19.33 8.34 19.12 8.12C18.91 7.91 18.65 7.78 18.37 7.78C18.09 7.78 17.82 7.91 17.63 8.12C17.40 8.34 17.29 8.65 17.29 8.97C17.29 9.07 17.28 9.16 17.23 9.23C17.14 9.41 16.95 9.53 16.73 9.53C16.51 9.53 16.32 9.41 16.23 9.23C16.20 9.16 16.17 9.07 16.17 8.97ZM19.22 11.69C19.22 11.70 19.21 11.72 19.21 11.73L16.81 9.77C17.22 9.73 17.53 9.38 17.53 8.97L17.53 8.90L19.95 10.89C19.54 10.92 19.22 11.27 19.22 11.69ZM20.58 11.69C20.58 11.93 20.54 12.17 20.47 12.38C20.19 13.31 19.36 14 18.38 14L18.37 14C17.16 14 16.17 12.96 16.17 11.69C16.17 11.59 16.20 11.51 16.23 11.44C16.32 11.26 16.51 11.13 16.73 11.13C16.95 11.13 17.14 11.26 17.23 11.44C17.28 11.51 17.29 11.59 17.29 11.69C17.29 12.01 17.40 12.32 17.63 12.54C17.82 12.75 18.09 12.88 18.37 12.88C18.65 12.88 18.91 12.75 19.12 12.54C19.33 12.32 19.46 12.01 19.46 11.69C19.46 11.59 19.47 11.51 19.52 11.44C19.60 11.26 19.80 11.13 20.02 11.13C20.23 11.13 20.43 11.26 20.52 11.44C20.55 11.51 20.58 11.59 20.58 11.69ZM23.62 6.65C22.41 6.65 21.42 7.69 21.42 8.96L21.42 11.12C21.56 10.98 21.76 10.89 21.98 10.89C22.20 10.89 22.40 10.98 22.54 11.12L22.54 8.96C22.54 8.64 22.65 8.33 22.88 8.11C23.07 7.88 23.34 7.77 23.62 7.77C23.90 7.77 24.16 7.88 24.37 8.11C24.58 8.33 24.71 8.64 24.71 8.96L24.71 11.12C24.85 10.98 25.05 10.89 25.27 10.89C25.48 10.89 25.68 10.98 25.83 11.12L25.83 8.96C25.83 7.69 24.84 6.65 23.62 6.65ZM25.27 11.13C25.05 11.13 24.85 11.26 24.77 11.44C24.72 11.51 24.71 11.59 24.71 11.69C24.71 12.01 24.58 12.32 24.37 12.54C24.16 12.75 23.90 12.88 23.62 12.88C23.34 12.88 23.07 12.75 22.88 12.54C22.65 12.32 22.54 12.01 22.54 11.69C22.54 11.59 22.53 11.51 22.48 11.44C22.39 11.26 22.20 11.13 21.98 11.13C21.76 11.13 21.57 11.26 21.48 11.44C21.45 11.51 21.42 11.59 21.42 11.69C21.42 12.96 22.41 14 23.62 14L23.63 14C24.61 14 25.44 13.31 25.72 12.38C25.79 12.17 25.83 11.93 25.83 11.69C25.83 11.59 25.80 11.51 25.77 11.44C25.68 11.26 25.48 11.13 25.27 11.13ZM31.08 9.02C31.05 9.31 30.81 9.53 30.52 9.53C30.21 9.53 29.97 9.31 29.96 9.02L29.96 8.97C29.96 8.65 29.83 8.34 29.62 8.12C29.41 7.91 29.15 7.78 28.87 7.78C28.59 7.78 28.32 7.91 28.13 8.12C27.90 8.34 27.79 8.65 27.79 8.97C27.79 9.28 27.54 9.53 27.23 9.53C26.92 9.53 26.67 9.28 26.67 8.97C26.67 7.70 27.66 6.66 28.87 6.66C30.09 6.66 31.08 7.70 31.08 8.97ZM27.23 9.77C27.45 9.77 27.65 9.69 27.79 9.55L27.79 13.44C27.79 13.75 27.54 14 27.23 14C26.92 14 26.67 13.75 26.67 13.44L26.67 9.55C26.81 9.69 27.01 9.77 27.23 9.77ZM31.08 13.44C31.08 13.75 30.83 14 30.52 14C30.21 14 29.96 13.75 29.96 13.44L29.96 9.55C30.10 9.69 30.30 9.77 30.52 9.77C30.73 9.77 30.93 9.69 31.08 9.55ZM35.56 6.50C35.56 6.26 35.60 6.02 35.66 5.81C35.94 4.87 36.78 4.20 37.74 4.19L37.76 4.19C38.98 4.19 39.97 5.22 39.97 6.50C39.97 6.59 39.94 6.68 39.91 6.75C39.82 6.93 39.62 7.06 39.41 7.06C39.19 7.06 38.99 6.93 38.91 6.75C38.86 6.68 38.85 6.59 38.85 6.50C38.85 6.17 38.72 5.88 38.51 5.64C38.30 5.43 38.04 5.31 37.76 5.31C37.48 5.31 37.21 5.43 37.02 5.64C36.79 5.88 36.68 6.17 36.68 6.50C36.68 6.59 36.67 6.68 36.62 6.75C36.53 6.93 36.34 7.06 36.12 7.06C35.90 7.06 35.71 6.93 35.62 6.75C35.59 6.68 35.56 6.59 35.56 6.50ZM39.97 8.60C39.97 9.87 38.98 10.91 37.76 10.91C37.37 10.91 37.00 10.79 36.68 10.61L36.68 13.44C36.68 13.75 36.43 14 36.12 14C35.81 14 35.56 13.75 35.56 13.44L35.56 7.11C35.70 7.25 35.90 7.34 36.12 7.34C36.34 7.34 36.54 7.25 36.68 7.11L36.68 8.60C36.68 8.92 36.79 9.23 37.02 9.45C37.21 9.67 37.48 9.79 37.76 9.79C38.04 9.79 38.30 9.67 38.51 9.45C38.72 9.23 38.85 8.92 38.85 8.60L38.85 7.11C38.99 7.25 39.19 7.34 39.41 7.34C39.62 7.34 39.82 7.25 39.97 7.11ZM41.93 11.12C41.79 10.98 41.59 10.89 41.37 10.89C41.16 10.89 40.95 10.98 40.81 11.12L40.81 4.79C40.81 4.48 41.06 4.23 41.37 4.23C41.68 4.23 41.93 4.48 41.93 4.79ZM41.37 11.13C41.68 11.13 41.93 11.38 41.93 11.69C41.93 12.01 42.06 12.32 42.27 12.54C42.46 12.77 42.73 12.88 43.01 12.88C43.32 12.88 43.61 12.74 43.82 12.47C44.02 12.24 44.37 12.21 44.60 12.40C44.86 12.60 44.88 12.95 44.69 13.19C44.27 13.71 43.67 14 43.01 14C41.80 14 40.81 12.96 40.81 11.69C40.81 11.38 41.06 11.13 41.37 11.13ZM47.38 6.65C46.77 6.65 46.24 6.85 45.84 7.20C45.40 7.57 45.16 8.12 45.16 8.74C45.16 9.04 45.42 9.30 45.72 9.30C46.03 9.30 46.28 9.04 46.28 8.74C46.28 8.44 46.38 8.20 46.58 8.04C46.77 7.87 47.05 7.77 47.38 7.77C47.66 7.77 47.92 7.90 48.12 8.11C48.33 8.34 48.45 8.64 48.45 8.96L48.45 9.87C48.13 9.67 47.77 9.56 47.38 9.56C46.45 9.56 45.67 10.15 45.33 10.99C45.46 10.92 45.58 10.89 45.72 10.89C46.03 10.89 46.28 11.05 46.42 11.30C46.48 11.20 46.54 11.10 46.62 11.02C46.82 10.81 47.10 10.68 47.38 10.68C47.66 10.68 47.92 10.81 48.12 11.02C48.20 11.10 48.26 11.20 48.31 11.30C48.36 11.23 48.40 11.17 48.45 11.12C48.59 10.98 48.79 10.89 49.01 10.89C49.15 10.89 49.29 10.92 49.41 10.99C49.46 11.02 49.52 11.06 49.57 11.12L49.57 8.96C49.57 7.69 48.58 6.65 47.38 6.65ZM49.01 11.13C48.71 11.13 48.45 11.38 48.45 11.69C48.45 12.01 48.33 12.32 48.12 12.54C47.91 12.77 47.64 12.88 47.36 12.88C47.08 12.88 46.82 12.77 46.62 12.54C46.40 12.32 46.28 12.01 46.28 11.69C46.28 11.38 46.03 11.13 45.72 11.13C45.42 11.13 45.16 11.38 45.16 11.69C45.16 12.96 46.16 14 47.36 14C48.58 14 49.57 12.96 49.57 11.69C49.57 11.38 49.32 11.13 49.01 11.13ZM54.82 9.02C54.80 9.31 54.56 9.53 54.26 9.53C53.96 9.53 53.72 9.31 53.70 9.02L53.70 8.97C53.70 8.65 53.58 8.34 53.37 8.12C53.16 7.91 52.89 7.78 52.61 7.78C52.33 7.78 52.07 7.91 51.87 8.12C51.65 8.34 51.53 8.65 51.53 8.97C51.53 9.28 51.28 9.53 50.97 9.53C50.67 9.53 50.41 9.28 50.41 8.97C50.41 7.70 51.41 6.66 52.61 6.66C53.83 6.66 54.82 7.70 54.82 8.97ZM50.97 9.77C51.20 9.77 51.39 9.69 51.53 9.55L51.53 13.44C51.53 13.75 51.28 14 50.97 14C50.67 14 50.41 13.75 50.41 13.44L50.41 9.55C50.55 9.69 50.75 9.77 50.97 9.77ZM54.82 13.44C54.82 13.75 54.57 14 54.26 14C53.96 14 53.70 13.75 53.70 13.44L53.70 9.55C53.84 9.69 54.04 9.77 54.26 9.77C54.47 9.77 54.67 9.69 54.82 9.55Z"></path></g><!----><g data-v-423bf9ae="" id="ff7d8b9e-9f33-40bb-947a-bec480c8ffd9" transform="matrix(2.8125,0,0,2.8125,0,0)" stroke="none" fill="black"><path d="M9.571 20.464l8.064 4.47 8.065-4.47v-8.939l-8.065-4.469-8.064 4.469z"></path><path d="M32 0H0v32h32l-5.054-5.172H5.054V5.172h21.892z"></path></g><!----></svg>