<svg data-v-fde0c5aa="" xmlns="http://www.w3.org/2000/svg" viewBox="0 0 300 300" class="iconLeft"><!----><defs data-v-fde0c5aa=""><!----></defs><rect data-v-fde0c5aa="" fill="transparent" x="0" y="0" width="300px" height="300px" class="logo-background-square"></rect><defs data-v-fde0c5aa=""><!----></defs><g data-v-fde0c5aa="" id="8c489c8a-a992-43ac-bcd3-392b8b630278" fill="#000000" transform="matrix(2.3896813835325155,0,0,2.3896813835325155,87.70397503905339,128.1344151127797)"><path d="M1.50 14L1.50 14Q1.32 14 1.32 13.82L1.32 13.82L1.32 4.38L1.32 4.38Q1.32 4.20 1.50 4.20L1.50 4.20L2.13 4.20L2.13 4.20Q2.31 4.20 2.31 4.38L2.31 4.38L2.31 13.06L2.31 13.06Q2.31 13.13 2.38 13.13L2.38 13.13L7.27 13.13L7.27 13.13Q7.45 13.13 7.45 13.31L7.45 13.31L7.45 13.82L7.45 13.82Q7.45 14 7.27 14L7.27 14L1.50 14ZM11.83 13.26L11.83 13.26Q12.46 13.24 12.91 12.97L12.91 12.97L12.91 12.97Q13.37 12.70 13.62 12.21L13.62 12.21L13.62 12.21Q13.65 12.14 13.72 12.11L13.72 12.11L13.72 12.11Q13.79 12.08 13.86 12.12L13.86 12.12L14.27 12.35L14.27 12.35Q14.43 12.45 14.35 12.59L14.35 12.59L14.35 12.59Q14.01 13.29 13.34 13.70L13.34 13.70L13.34 13.70Q12.67 14.11 11.75 14.11L11.75 14.11L11.75 14.11Q10.77 14.11 10.09 13.65L10.09 13.65L10.09 13.65Q9.42 13.19 9.13 12.36L9.13 12.36L9.13 12.36Q8.86 11.66 8.86 10.43L8.86 10.43L8.86 10.43Q8.86 9.83 8.88 9.47L8.88 9.47L8.88 9.47Q8.90 9.11 8.99 8.81L8.99 8.81L8.99 8.81Q9.23 7.90 9.95 7.35L9.95 7.35L9.95 7.35Q10.67 6.80 11.69 6.80L11.69 6.80L11.69 6.80Q12.91 6.80 13.60 7.43L13.60 7.43L13.60 7.43Q14.29 8.06 14.49 9.21L14.49 9.21L14.49 9.21Q14.57 9.66 14.57 10.61L14.57 10.61L14.57 10.61Q14.57 10.79 14.39 10.79L14.39 10.79L9.91 10.79L9.91 10.79Q9.84 10.79 9.84 10.86L9.84 10.86L9.84 10.86Q9.84 11.56 9.93 11.89L9.93 11.89L9.93 11.89Q10.08 12.52 10.58 12.89L10.58 12.89L10.58 12.89Q11.07 13.26 11.83 13.26L11.83 13.26ZM11.69 7.67L11.69 7.67Q10.99 7.67 10.54 8.03L10.54 8.03L10.54 8.03Q10.09 8.39 9.95 8.99L9.95 8.99L9.95 8.99Q9.87 9.27 9.84 9.94L9.84 9.94L9.84 9.94Q9.84 10.01 9.91 10.01L9.91 10.01L13.51 10.01L13.51 10.01Q13.58 10.01 13.58 9.94L13.58 9.94L13.58 9.94Q13.55 9.32 13.50 9.04L13.50 9.04L13.50 9.04Q13.34 8.41 12.87 8.04L12.87 8.04L12.87 8.04Q12.40 7.67 11.69 7.67L11.69 7.67ZM18.87 14.07L18.87 14.07Q18.09 14.07 17.48 13.82L17.48 13.82L17.48 13.82Q16.87 13.57 16.54 13.15L16.54 13.15L16.54 13.15Q16.21 12.73 16.21 12.21L16.21 12.21L16.21 12.08L16.21 12.08Q16.21 11.90 16.39 11.90L16.39 11.90L17.00 11.90L17.00 11.90Q17.08 11.90 17.13 11.94L17.13 11.94L17.13 11.94Q17.18 11.97 17.18 12.03L17.18 12.03L17.18 12.15L17.18 12.15Q17.18 12.61 17.65 12.96L17.65 12.96L17.65 12.96Q18.13 13.30 18.86 13.30L18.86 13.30L18.86 13.30Q19.59 13.30 20.03 12.97L20.03 12.97L20.03 12.97Q20.48 12.64 20.48 12.14L20.48 12.14L20.48 12.14Q20.48 11.79 20.26 11.56L20.26 11.56L20.26 11.56Q20.03 11.34 19.71 11.21L19.71 11.21L19.71 11.21Q19.39 11.09 18.75 10.89L18.75 10.89L18.75 10.89Q17.96 10.67 17.46 10.44L17.46 10.44L17.46 10.44Q16.95 10.22 16.60 9.82L16.60 9.82L16.60 9.82Q16.25 9.42 16.25 8.81L16.25 8.81L16.25 8.81Q16.25 7.91 16.96 7.38L16.96 7.38L16.96 7.38Q17.67 6.85 18.82 6.85L18.82 6.85L18.82 6.85Q19.59 6.85 20.18 7.10L20.18 7.10L20.18 7.10Q20.78 7.35 21.10 7.79L21.10 7.79L21.10 7.79Q21.42 8.23 21.42 8.78L21.42 8.78L21.42 8.78Q21.42 8.96 21.24 8.96L21.24 8.96L20.66 8.96L20.66 8.96Q20.48 8.96 20.48 8.86L20.48 8.86L20.48 8.78L20.48 8.78Q20.48 8.30 20.03 7.98L20.03 7.98L20.03 7.98Q19.57 7.66 18.80 7.66L18.80 7.66L18.80 7.66Q18.09 7.66 17.65 7.95L17.65 7.95L17.65 7.95Q17.22 8.23 17.22 8.74L17.22 8.74L17.22 8.74Q17.22 9.21 17.63 9.46L17.63 9.46L17.63 9.46Q18.05 9.72 18.93 9.97L18.93 9.97L18.93 9.97Q19.74 10.19 20.24 10.40L20.24 10.40L20.24 10.40Q20.75 10.61 21.11 11.02L21.11 11.02L21.11 11.02Q21.48 11.42 21.48 12.07L21.48 12.07L21.48 12.07Q21.48 12.98 20.77 13.52L20.77 13.52L20.77 13.52Q20.06 14.07 18.87 14.07L18.87 14.07ZM25.62 14.07L25.62 14.07Q24.84 14.07 24.23 13.82L24.23 13.82L24.23 13.82Q23.62 13.57 23.29 13.15L23.29 13.15L23.29 13.15Q22.96 12.73 22.96 12.21L22.96 12.21L22.96 12.08L22.96 12.08Q22.96 11.90 23.14 11.90L23.14 11.90L23.74 11.90L23.74 11.90Q23.83 11.90 23.88 11.94L23.88 11.94L23.88 11.94Q23.93 11.97 23.93 12.03L23.93 12.03L23.93 12.15L23.93 12.15Q23.93 12.61 24.40 12.96L24.40 12.96L24.40 12.96Q24.88 13.30 25.61 13.30L25.61 13.30L25.61 13.30Q26.33 13.30 26.78 12.97L26.78 12.97L26.78 12.97Q27.23 12.64 27.23 12.14L27.23 12.14L27.23 12.14Q27.23 11.79 27.01 11.56L27.01 11.56L27.01 11.56Q26.78 11.34 26.46 11.21L26.46 11.21L26.46 11.21Q26.14 11.09 25.49 10.89L25.49 10.89L25.49 10.89Q24.71 10.67 24.21 10.44L24.21 10.44L24.21 10.44Q23.70 10.22 23.35 9.82L23.35 9.82L23.35 9.82Q23.00 9.42 23.00 8.81L23.00 8.81L23.00 8.81Q23.00 7.91 23.71 7.38L23.71 7.38L23.71 7.38Q24.42 6.85 25.56 6.85L25.56 6.85L25.56 6.85Q26.33 6.85 26.93 7.10L26.93 7.10L26.93 7.10Q27.52 7.35 27.85 7.79L27.85 7.79L27.85 7.79Q28.17 8.23 28.17 8.78L28.17 8.78L28.17 8.78Q28.17 8.96 27.99 8.96L27.99 8.96L27.41 8.96L27.41 8.96Q27.23 8.96 27.23 8.86L27.23 8.86L27.23 8.78L27.23 8.78Q27.23 8.30 26.78 7.98L26.78 7.98L26.78 7.98Q26.32 7.66 25.55 7.66L25.55 7.66L25.55 7.66Q24.84 7.66 24.40 7.95L24.40 7.95L24.40 7.95Q23.97 8.23 23.97 8.74L23.97 8.74L23.97 8.74Q23.97 9.21 24.38 9.46L24.38 9.46L24.38 9.46Q24.79 9.72 25.68 9.97L25.68 9.97L25.68 9.97Q26.49 10.19 26.99 10.40L26.99 10.40L26.99 10.40Q27.50 10.61 27.86 11.02L27.86 11.02L27.86 11.02Q28.22 11.42 28.22 12.07L28.22 12.07L28.22 12.07Q28.22 12.98 27.52 13.52L27.52 13.52L27.52 13.52Q26.81 14.07 25.62 14.07L25.62 14.07ZM32.76 14.11L32.76 14.11Q31.74 14.11 31.02 13.59L31.02 13.59L31.02 13.59Q30.30 13.08 30.02 12.17L30.02 12.17L30.02 12.17Q29.82 11.52 29.82 10.44L29.82 10.44L29.82 10.44Q29.82 9.38 30.00 8.74L30.00 8.74L30.00 8.74Q30.28 7.84 31.00 7.32L31.00 7.32L31.00 7.32Q31.72 6.80 32.76 6.80L32.76 6.80L32.76 6.80Q33.77 6.80 34.49 7.32L34.49 7.32L34.49 7.32Q35.21 7.84 35.48 8.72L35.48 8.72L35.48 8.72Q35.67 9.39 35.67 10.44L35.67 10.44L35.67 10.44Q35.67 11.52 35.48 12.17L35.48 12.17L35.48 12.17Q35.20 13.08 34.48 13.59L34.48 13.59L34.48 13.59Q33.75 14.11 32.76 14.11L32.76 14.11ZM32.76 13.24L32.76 13.24Q33.43 13.24 33.91 12.87L33.91 12.87L33.91 12.87Q34.38 12.50 34.55 11.87L34.55 11.87L34.55 11.87Q34.66 11.42 34.66 10.46L34.66 10.46L34.66 10.46Q34.66 9.45 34.55 9.04L34.55 9.04L34.55 9.04Q34.40 8.41 33.92 8.04L33.92 8.04L33.92 8.04Q33.43 7.67 32.73 7.67L32.73 7.67L32.73 7.67Q32.06 7.67 31.58 8.04L31.58 8.04L31.58 8.04Q31.11 8.41 30.94 9.04L30.94 9.04L30.94 9.04Q30.83 9.45 30.83 10.46L30.83 10.46L30.83 10.46Q30.83 11.47 30.94 11.87L30.94 11.87L30.94 11.87Q31.09 12.50 31.58 12.87L31.58 12.87L31.58 12.87Q32.06 13.24 32.76 13.24L32.76 13.24ZM40.63 6.82L40.63 6.82Q41.73 6.82 42.40 7.48L42.40 7.48L42.40 7.48Q43.06 8.13 43.06 9.24L43.06 9.24L43.06 13.82L43.06 13.82Q43.06 14 42.88 14L42.88 14L42.25 14L42.25 14Q42.07 14 42.07 13.82L42.07 13.82L42.07 9.44L42.07 9.44Q42.07 8.65 41.61 8.17L41.61 8.17L41.61 8.17Q41.15 7.69 40.40 7.69L40.40 7.69L40.40 7.69Q39.69 7.69 39.22 8.09L39.22 8.09L39.22 8.09Q38.75 8.50 38.68 9.16L38.68 9.16L38.68 13.82L38.68 13.82Q38.68 14 38.50 14L38.50 14L37.87 14L37.87 14Q37.69 14 37.69 13.82L37.69 13.82L37.69 7.10L37.69 7.10Q37.69 6.92 37.87 6.92L37.87 6.92L38.50 6.92L38.50 6.92Q38.68 6.92 38.68 7.10L38.68 7.10L38.68 7.62L38.68 7.62Q38.68 7.66 38.71 7.68L38.71 7.68L38.71 7.68Q38.74 7.70 38.75 7.66L38.75 7.66L38.75 7.66Q39.37 6.82 40.63 6.82L40.63 6.82ZM51.95 4.19L51.95 4.19Q53.19 4.19 53.94 4.94L53.94 4.94L53.94 4.94Q54.68 5.70 54.68 6.93L54.68 6.93L54.68 6.93Q54.68 8.15 53.92 8.89L53.92 8.89L53.92 8.89Q53.16 9.63 51.91 9.63L51.91 9.63L49.20 9.63L49.20 9.63Q49.13 9.63 49.13 9.70L49.13 9.70L49.13 13.82L49.13 13.82Q49.13 14 48.94 14L48.94 14L48.31 14L48.31 14Q48.13 14 48.13 13.82L48.13 13.82L48.13 4.37L48.13 4.37Q48.13 4.19 48.31 4.19L48.31 4.19L51.95 4.19ZM51.84 8.81L51.84 8.81Q52.67 8.81 53.19 8.29L53.19 8.29L53.19 8.29Q53.70 7.78 53.70 6.94L53.70 6.94L53.70 6.94Q53.70 6.09 53.19 5.57L53.19 5.57L53.19 5.57Q52.67 5.05 51.84 5.05L51.84 5.05L49.20 5.05L49.20 5.05Q49.13 5.05 49.13 5.12L49.13 5.12L49.13 8.74L49.13 8.74Q49.13 8.81 49.20 8.81L49.20 8.81L51.84 8.81ZM56.50 14L56.50 14Q56.32 14 56.32 13.82L56.32 13.82L56.32 4.38L56.32 4.38Q56.32 4.20 56.50 4.20L56.50 4.20L57.13 4.20L57.13 4.20Q57.32 4.20 57.32 4.38L57.32 4.38L57.32 13.82L57.32 13.82Q57.32 14 57.13 14L57.13 14L56.50 14ZM62.02 6.80L62.02 6.80Q63.28 6.80 63.97 7.45L63.97 7.45L63.97 7.45Q64.67 8.09 64.67 9.16L64.67 9.16L64.67 13.82L64.67 13.82Q64.67 14 64.48 14L64.48 14L63.85 14L63.85 14Q63.67 14 63.67 13.82L63.67 13.82L63.67 13.31L63.67 13.31Q63.67 13.27 63.64 13.26L63.64 13.26L63.64 13.26Q63.62 13.24 63.59 13.29L63.59 13.29L63.59 13.29Q63.21 13.69 62.64 13.90L62.64 13.90L62.64 13.90Q62.08 14.11 61.40 14.11L61.40 14.11L61.40 14.11Q60.42 14.11 59.76 13.61L59.76 13.61L59.76 13.61Q59.09 13.10 59.09 12.07L59.09 12.07L59.09 12.07Q59.09 11.02 59.86 10.41L59.86 10.41L59.86 10.41Q60.62 9.80 61.98 9.80L61.98 9.80L63.60 9.80L63.60 9.80Q63.67 9.80 63.67 9.73L63.67 9.73L63.67 9.21L63.67 9.21Q63.67 8.50 63.27 8.09L63.27 8.09L63.27 8.09Q62.87 7.67 62.03 7.67L62.03 7.67L62.03 7.67Q61.38 7.67 60.96 7.92L60.96 7.92L60.96 7.92Q60.54 8.18 60.42 8.62L60.42 8.62L60.42 8.62Q60.38 8.79 60.21 8.76L60.21 8.76L59.53 8.68L59.53 8.68Q59.35 8.65 59.36 8.53L59.36 8.53L59.36 8.53Q59.50 7.76 60.22 7.28L60.22 7.28L60.22 7.28Q60.94 6.80 62.02 6.80L62.02 6.80ZM61.63 13.26L61.63 13.26Q62.45 13.26 63.06 12.85L63.06 12.85L63.06 12.85Q63.67 12.43 63.67 11.73L63.67 11.73L63.67 10.65L63.67 10.65Q63.67 10.58 63.60 10.58L63.60 10.58L62.13 10.58L62.13 10.58Q61.21 10.58 60.65 10.96L60.65 10.96L60.65 10.96Q60.09 11.34 60.09 12.01L60.09 12.01L60.09 12.01Q60.09 12.63 60.52 12.94L60.52 12.94L60.52 12.94Q60.96 13.26 61.63 13.26L61.63 13.26ZM69.66 6.82L69.66 6.82Q70.77 6.82 71.44 7.48L71.44 7.48L71.44 7.48Q72.10 8.13 72.10 9.24L72.10 9.24L72.10 13.82L72.10 13.82Q72.10 14 71.92 14L71.92 14L71.29 14L71.29 14Q71.11 14 71.11 13.82L71.11 13.82L71.11 9.44L71.11 9.44Q71.11 8.65 70.64 8.17L70.64 8.17L70.64 8.17Q70.18 7.69 69.44 7.69L69.44 7.69L69.44 7.69Q68.73 7.69 68.26 8.09L68.26 8.09L68.26 8.09Q67.79 8.50 67.72 9.16L67.72 9.16L67.72 13.82L67.72 13.82Q67.72 14 67.54 14L67.54 14L66.91 14L66.91 14Q66.72 14 66.72 13.82L66.72 13.82L66.72 7.10L66.72 7.10Q66.72 6.92 66.91 6.92L66.91 6.92L67.54 6.92L67.54 6.92Q67.72 6.92 67.72 7.10L67.72 7.10L67.72 7.62L67.72 7.62Q67.72 7.66 67.75 7.68L67.75 7.68L67.75 7.68Q67.77 7.70 67.79 7.66L67.79 7.66L67.79 7.66Q68.40 6.82 69.66 6.82L69.66 6.82Z"></path></g><defs data-v-fde0c5aa=""><linearGradient data-v-fde0c5aa="" gradientTransform="rotate(25)" id="5d91214b-3b0f-4800-bf70-a50a3a444bb2" x1="0%" y1="0%" x2="100%" y2="0%"><stop data-v-fde0c5aa="" offset="0%" stop-color="#4B279B" stop-opacity="1"></stop><stop data-v-fde0c5aa="" offset="100%" stop-color="#DF99D8" stop-opacity="1"></stop></linearGradient></defs><g data-v-fde0c5aa="" id="f2c55ae4-f3bf-4c6f-b819-50430212a288" stroke="none" fill="url(#5d91214b-3b0f-4800-bf70-a50a3a444bb2)" transform="matrix(1.1830735809581276,0,0,1.1830735809581276,40,131.0708228457033)"><path d="M17.572 23.933l4.106 7.095L32 13.189h-8.981V7.582L11.51.972 0 7.582v13.222l11.51 6.611 6.062-3.482zm10.96-8.744l-6.855 11.846-6.855-11.846h13.71z"></path></g><!----></svg>